<svg width="110" height="110" viewBox="0 0 110 110" fill="none" xmlns="http://www.w3.org/2000/svg">
<g id="logo">
<rect id="Rectangle" width="110" height="110" fill="#004A93"/>
<path id="Combined Shape" fill-rule="evenodd" clip-rule="evenodd" d="M43.3298 68.9333H38.1333V92.7168H43.0291V76.7941H43.0959L52.9896 92.7168H58.2195V68.9333H53.3222V84.8887H53.2557L43.3298 68.9333ZM65.8759 72.8307H61.1456V68.9333H65.8759V72.8307ZM65.8759 92.7168H61.1456V75.4958H65.8759V92.7168ZM79.9451 81.5578C79.6456 79.6258 78.4125 78.5936 76.4476 78.5936C73.4165 78.5936 72.4169 81.658 72.4169 84.1898C72.4169 86.6548 73.3831 89.619 76.3481 89.619C78.5462 89.619 79.8119 88.22 80.1118 86.1218H84.675C84.0752 90.6846 80.9113 93.183 76.3807 93.183C71.1843 93.183 67.6871 89.5195 67.6871 84.3557C67.6871 78.9933 70.8847 75.0292 76.481 75.0292C80.545 75.0292 84.2757 77.1616 84.5748 81.5578H79.9451ZM94.9518 75.0292C100.815 75.0292 103.646 79.9595 103.313 85.2558H90.8882C91.0211 88.2534 92.4868 89.619 95.1189 89.619C97.0174 89.619 98.5493 88.4535 98.8496 87.3875H103.013C101.681 91.4503 98.8496 93.183 94.9518 93.183C89.5223 93.183 86.1583 89.4527 86.1583 84.123C86.1583 78.9603 89.7219 75.0292 94.9518 75.0292ZM94.8186 78.5936C91.821 78.5936 90.9542 80.9253 90.8882 82.2579H98.5823C98.1495 79.8593 97.1169 78.5936 94.8186 78.5936Z" fill="white"/>
</g>
</svg>
